<svg width="161" height="76" viewBox="0 0 161 76" fill="none" xmlns="http://www.w3.org/2000/svg">
<path d="M154.866 67.0095L37.0002 67.2073L37.0418 75.1917L154.908 74.994L154.866 67.0095Z" fill="#1F2E35"/>
<line y1="-0.1" x2="124" y2="-0.1" transform="matrix(0.999999 -0.00155606 0.0051773 0.999987 37 71.1929)" stroke="white" stroke-width="0.2" stroke-dasharray="3.4 3.4"/>
<line y1="-0.1" x2="124" y2="-0.1" transform="matrix(0.999999 -0.00152927 0.00526799 0.999986 37 68.1895)" stroke="white" stroke-width="0.2"/>
<line y1="-0.1" x2="124" y2="-0.1" transform="matrix(0.999999 -0.00152927 0.00526799 0.999986 37 74.1895)" stroke="white" stroke-width="0.2"/>
<path d="M57 58.343C57 62.2499 53.8658 65.4189 49.9998 65.4189C46.1342 65.4189 43 62.2499 43 58.343V39.4938C43 35.5869 46.1342 32.4189 49.9993 32.4189C53.8653 32.4189 56.9995 35.5869 56.9995 39.4938L57 58.343Z" fill="#BFC7CB"/>
<path d="M56 57.7731C56 61.4436 53.3142 64.4189 50 64.4189C46.6867 64.4189 44 61.4436 44 57.7731V40.0659C44 36.3954 46.6867 33.4189 50 33.4189C53.3142 33.4189 56 36.3954 56 40.0659V57.7731Z" fill="#1F2E35"/>
<path d="M47.6839 57.7725V40.0664C47.6839 37.0874 49.5003 34.567 52 33.7216C51.4038 33.5205 50.7827 33.4184 50.1581 33.4189C46.7575 33.4189 44 36.3954 44 40.0659V57.772C44 61.4436 46.7575 64.4189 50.1581 64.4189C50.7997 64.4189 51.4187 64.3131 52 64.1158C49.5003 63.272 47.6839 60.7505 47.6839 57.7725Z" fill="#111111"/>
<path d="M50 43.4189C52.2091 43.4189 54 41.6281 54 39.4189C54 37.2098 52.2091 35.4189 50 35.4189C47.7909 35.4189 46 37.2098 46 39.4189C46 41.6281 47.7909 43.4189 50 43.4189Z" fill="#EC1C24"/>
<path d="M50 53.4189C52.2091 53.4189 54 51.4042 54 48.9189C54 46.4337 52.2091 44.4189 50 44.4189C47.7909 44.4189 46 46.4337 46 48.9189C46 51.4042 47.7909 53.4189 50 53.4189Z" fill="#F49C19"/>
<path d="M50 62.4189C52.2091 62.4189 54 60.6281 54 58.4189C54 56.2098 52.2091 54.4189 50 54.4189C47.7909 54.4189 46 56.2098 46 58.4189C46 60.6281 47.7909 62.4189 50 62.4189Z" fill="#07D365"/>
<path d="M10.9803 32.4939L1.65113 32.4939C0.809743 32.4939 0.189998 33.281 0.38742 34.0989L10.2598 74.9991C10.4007 75.5828 10.9231 75.9941 11.5235 75.9941H24.499C25.089 75.9941 25.605 75.5967 25.7558 75.0263L28.6371 64.1277C34.128 43.3576 43.4155 22.0234 62.6106 12.3745C90.4246 -1.60678 114.225 11.4105 128.5 28C111.462 0.200783 73.1133 -11.5153 38.6942 18.4475C30.3399 25.7201 25.3679 35.9662 22.2023 46.5805L19.5524 55.4655C19.261 56.4424 17.8657 56.408 17.6229 55.4179L12.2429 33.4842C12.1003 32.9028 11.579 32.4939 10.9803 32.4939Z" fill="url(#paint0_linear_45_2)"/>
<path d="M72.3555 53.4248V42.5547C72.3555 42.0024 72.8032 41.5547 73.3555 41.5547H76.3525C76.9048 41.5547 77.3525 42.0024 77.3525 42.5547V63C77.3525 63.5523 76.9048 64 76.3525 64H72.9538C72.5854 64 72.2468 63.7974 72.0726 63.4727L65.9971 52.1465V63C65.9971 63.5523 65.5494 64 64.9971 64H62C61.4477 64 61 63.5523 61 63V42.5547C61 42.0024 61.4477 41.5547 62 41.5547H65.3983C65.767 41.5547 66.1057 41.7575 66.2798 42.0825L72.3555 53.4248Z" fill="#074293"/>
<path d="M85.2721 42.3181C85.3812 41.87 85.7826 41.5547 86.2437 41.5547H91.7944C92.2555 41.5547 92.6569 41.87 92.766 42.3181L97.7408 62.7468C97.8942 63.3764 97.4173 63.9834 96.7692 63.9834H93.6824C93.2207 63.9834 92.819 63.6673 92.7104 63.2186L91.9517 60.0832C91.8431 59.6344 91.4414 59.3184 90.9797 59.3184H87.0584C86.5967 59.3184 86.195 59.6344 86.0864 60.0832L85.3277 63.2186C85.2191 63.6673 84.8174 63.9834 84.3557 63.9834H81.2688C80.6208 63.9834 80.1439 63.3764 80.2972 62.7468L85.2721 42.3181ZM87.5996 53.8896H90.4385L89.0107 48.0459L87.5996 53.8896Z" fill="url(#paint1_linear_45_2)"/>
<path d="M105.168 47.4153C105.523 48.1948 106.631 48.1948 106.987 47.4153L109.396 42.1393C109.559 41.7832 109.914 41.5547 110.306 41.5547H113.601C114.33 41.5547 114.814 42.3083 114.511 42.9706L108.658 55.7667C108.598 55.8973 108.567 56.0391 108.567 56.1827V62.9668C108.567 63.5191 108.12 63.9668 107.567 63.9668H104.57C104.018 63.9668 103.57 63.5191 103.57 62.9668V56.1986C103.57 56.0555 103.54 55.9141 103.48 55.7839L97.6408 42.9694C97.339 42.3072 97.823 41.5547 98.5507 41.5547H101.849C102.24 41.5547 102.596 41.7832 102.758 42.1393L105.168 47.4153Z" fill="url(#paint2_linear_45_2)"/>
<path d="M145.352 53.4248V42.5547C145.352 42.0024 145.799 41.5547 146.352 41.5547H149.349C149.901 41.5547 150.349 42.0024 150.349 42.5547V63C150.349 63.5523 149.901 64 149.349 64H145.95C145.581 64 145.243 63.7974 145.069 63.4727L138.993 52.1465V63C138.993 63.5523 138.545 64 137.993 64H134.996C134.444 64 133.996 63.5523 133.996 63V42.5547C133.996 42.0024 134.444 41.5547 134.996 41.5547H138.394C138.763 41.5547 139.102 41.7575 139.276 42.0825L145.352 53.4248Z" fill="#1F2E35"/>
<path d="M119.272 42.3181C119.381 41.87 119.783 41.5547 120.244 41.5547H125.794C126.256 41.5547 126.657 41.87 126.766 42.3181L131.741 62.7468C131.894 63.3764 131.417 63.9834 130.769 63.9834H127.682C127.221 63.9834 126.819 63.6673 126.71 63.2186L125.952 60.0832C125.843 59.6344 125.441 59.3184 124.98 59.3184H121.058C120.597 59.3184 120.195 59.6344 120.086 60.0832L119.328 63.2186C119.219 63.6673 118.817 63.9834 118.356 63.9834H115.269C114.621 63.9834 114.144 63.3764 114.297 62.7468L119.272 42.3181ZM121.6 53.8896H124.438L123.011 48.0459L121.6 53.8896Z" fill="#1F2E35"/>
<path fill-rule="evenodd" clip-rule="evenodd" d="M84 12.5035C79.8114 12.2068 75.767 12.6228 71.8223 13.5829L70.4515 9.81668C75.0449 8.23574 79.59 7.44866 84 7.29232V12.5035ZM56.4414 17.2287C60.7865 14.0608 65.1668 11.7476 69.5093 10.1519L70.8485 13.8314C66.3378 15.0355 61.9537 16.9386 57.6288 19.2854L56.4414 17.2287ZM55.6329 17.8284C52.4967 20.1945 49.3812 23.0112 46.314 26.3305C49.7814 23.9528 53.2489 21.7197 56.7524 19.7674L55.6329 17.8284ZM85 12.5877C89.1286 12.9905 93.3991 14.091 97.8536 16.0479L101.419 9.87315C96.3243 8.17929 90.7852 7.18625 85 7.26758V12.5877ZM116.155 17.3693C120.837 20.7013 124.567 24.4607 127 27.9999C125.397 28.4638 122.085 29.4037 119.704 29.6046C118.083 29.7413 116.704 28.7598 115.478 27.691C112.996 25.5254 110.572 23.6221 108.201 21.9613L116.155 17.3693ZM115.248 16.7379C111.478 14.1664 107.134 11.8839 102.382 10.2038L98.7696 16.4613C101.535 17.7421 104.372 19.3535 107.29 21.3328L115.248 16.7379Z" fill="url(#paint3_linear_45_2)"/>
<path fill-rule="evenodd" clip-rule="evenodd" d="M87.0514 30.6567L105.93 16.3108L84.101 25.5683C83.8366 25.6364 83.577 25.7413 83.3293 25.885C83.3084 25.8971 83.2878 25.9093 83.2674 25.9218L83.2612 25.9245L83.2617 25.9253C81.8549 26.7893 81.3863 28.6226 82.2192 30.059C83.0521 31.4954 84.876 31.9995 86.3246 31.2077L86.3251 31.2086L86.3305 31.2045C86.3515 31.193 86.3724 31.1812 86.3932 31.1691C86.641 31.0254 86.861 30.8523 87.0514 30.6567Z" fill="#014F76"/>
<path d="M85.8145 30.3278C84.8417 30.8918 83.5958 30.5605 83.0318 29.5877C82.4677 28.6149 82.799 27.3691 83.7718 26.805C84.7446 26.2409 85.9905 26.5723 86.5545 27.5451C87.1186 28.5178 86.7872 29.7637 85.8145 30.3278Z" fill="white"/>
<defs>
<linearGradient id="paint0_linear_45_2" x1="-6" y1="59" x2="132" y2="33" gradientUnits="userSpaceOnUse">
<stop offset="0.22985" stop-color="#074293"/>
<stop offset="1" stop-color="#02142D"/>
</linearGradient>
<linearGradient id="paint1_linear_45_2" x1="80.5" y1="53.5" x2="108.5" y2="53.5" gradientUnits="userSpaceOnUse">
<stop stop-color="#074293"/>
<stop offset="1" stop-color="#02142D"/>
</linearGradient>
<linearGradient id="paint2_linear_45_2" x1="93.5" y1="56" x2="113.5" y2="56" gradientUnits="userSpaceOnUse">
<stop stop-color="#0B54B8"/>
<stop offset="0.6" stop-color="#052652"/>
</linearGradient>
<linearGradient id="paint3_linear_45_2" x1="122" y1="30" x2="53.4948" y2="18.0296" gradientUnits="userSpaceOnUse">
<stop stop-color="#EC1C24"/>
<stop offset="0.5" stop-color="#F49C19" stop-opacity="0.85"/>
<stop offset="1" stop-color="#4FBA80"/>
</linearGradient>
</defs>
</svg>
